<svg width="394" height="144" viewBox="0 0 394 144" fill="none" xmlns="http://www.w3.org/2000/svg">
<path d="M78.1282 27.4563C78.7899 27.1019 79.588 27.1159 80.2368 27.4932L100.729 39.4096C102.19 40.2593 102.155 42.3815 100.667 43.1834L61.9442 64.0538C61.244 64.4312 60.8074 65.1624 60.8074 65.9579V114.634C60.8074 116.297 59.0078 117.338 57.5658 116.509L36.747 104.532C36.0761 104.146 35.6626 103.431 35.6626 102.657L35.6626 51.4967C35.6626 50.6992 36.1014 49.9665 36.8043 49.59L78.1282 27.4563Z" fill="#1F212F"/>
<path d="M97.9393 86.1085L115.023 76.9009C116.513 76.0979 116.545 73.9719 115.08 73.1245L94.4654 61.2014C93.8172 60.8266 93.0212 60.8136 92.3612 61.1671L72.7994 71.6446C72.0965 72.0212 71.6577 72.7539 71.6577 73.5514L71.6577 98.3022C71.6577 99.0761 72.0713 99.7911 72.7421 100.177L93.5609 111.71C95.0029 112.539 96.8025 111.499 96.8025 109.835L96.8025 88.0126C96.8025 87.2171 97.2391 86.4859 97.9393 86.1085Z" fill="#1F212F"/>
<path d="M147.968 94V49.072H177.216V57.84H158.912V67.312H172.608V75.824H158.912V94H147.968ZM182.968 49.072H193.912V85.552H208.248V94H182.968V49.072ZM257.692 71.408C257.692 84.912 247.452 94.448 234.716 94.448C221.98 94.448 211.612 84.912 211.612 71.408C211.612 57.904 221.98 48.432 234.716 48.432C247.516 48.432 257.692 57.904 257.692 71.408ZM222.812 71.408C222.812 79.28 227.42 84.464 234.716 84.464C241.884 84.464 246.556 79.28 246.556 71.408C246.556 63.408 241.884 58.352 234.716 58.352C227.42 58.352 222.812 63.408 222.812 71.408ZM294.437 94L291.749 86.064H274.981L272.293 94H260.837L277.093 49.072H289.765L306.021 94H294.437ZM288.933 77.616L283.365 61.168L277.861 77.616H288.933ZM327.8 49.072C342.136 49.072 351.352 58.16 351.352 71.536C351.352 84.848 342.136 94 327.8 94H310.968V49.072H327.8ZM321.912 84.528H327.096C335.352 84.528 340.216 79.792 340.216 71.536C340.216 63.28 335.352 58.416 327.096 58.416H321.912V84.528Z" fill="#1F212F"/>
</svg>
