<svg width="1544" height="208" viewBox="0 0 1544 208" fill="none" xmlns="http://www.w3.org/2000/svg">
<g clip-path="url(#clip0_473_36)">
<path d="M1178.94 207.825C1222.56 207.825 1246.11 171.175 1246.11 130.162C1246.11 89.1478 1223.43 53.0208 1178.59 53.0208C1158.19 53.0208 1140.09 61.6424 1132.36 74.3412V2.40846H1093.1V204.684H1132.36V183.149C1140.26 197.478 1156.93 207.825 1178.94 207.825ZM1169 171.349C1144.92 171.349 1130.61 152.152 1130.61 128.591C1130.61 105.03 1146.14 86.0064 1169.34 86.0064C1194.99 86.0064 1207.73 106.775 1207.73 128.591C1207.73 150.406 1192.9 171.349 1169 171.349ZM1323.05 204.684H1362.83V129.812C1362.83 107.473 1370.68 89.6714 1392.84 89.6714C1415 89.6714 1419.71 107.647 1419.71 128.591V204.684H1459.49V116.374C1459.49 78.5018 1440.47 53.0208 1406.62 53.0208C1387.07 53.0208 1368.08 61.3161 1361.79 83.6417V61.5729H1323.05V204.684ZM1259.43 43.7362H1305.38V0H1259.43V43.7362ZM1262.42 204.684H1302.38V61.5729H1262.42V204.684ZM1010.23 207.825C1053.85 207.825 1077.4 171.175 1077.4 130.162C1077.4 89.1478 1054.72 53.0208 1009.88 53.0208C989.48 53.0208 971.381 61.6424 963.645 74.3412V2.40846H924.391V204.684H963.645V183.149C971.55 197.478 988.222 207.825 1010.23 207.825ZM1000.28 171.349C976.208 171.349 961.902 152.152 961.902 128.591C961.902 105.03 977.43 86.0064 1000.63 86.0064C1026.28 86.0064 1039.02 106.775 1039.02 128.591C1039.02 150.406 1024.19 171.349 1000.28 171.349ZM830.519 170.711C805.497 170.711 791.753 152.2 791.753 129.463C791.753 105.138 807.083 88.2157 830.519 88.2157C856.247 88.2157 870.345 107.782 870.345 129.463C870.345 151.145 855.721 170.711 830.519 170.711ZM830.526 208C877.808 208 907.989 175.364 907.989 130.511C907.989 85.6573 876.761 52.3227 830.526 52.3227C784.29 52.3227 754.109 85.4828 754.109 130.511C754.109 175.538 785.34 208 830.526 208ZM522.938 206.08H562.019V66.95L611.743 198.052H649.078L698.805 66.95V206.08H737.886V2.40846H687.116L630.414 156.34L573.884 2.40846H522.938V206.08ZM153.541 206.08H268.869L315.935 155.836V206.08H443.066V85.7743H371.642V2.45558H263.57L214.979 53.1118V2.45558H90.2388L0 97.7502V206.03L103.814 206.077L153.541 152.995V206.08Z" fill="#1E1E1E"/>
<path fill-rule="evenodd" clip-rule="evenodd" d="M1472.49 35.75C1472.49 55.4941 1488.5 71.5 1508.24 71.5C1527.99 71.5 1544 55.4941 1544 35.75C1544 16.0058 1527.99 0 1508.24 0C1488.5 0 1472.49 16.0058 1472.49 35.75ZM1478.99 35.75C1478.99 19.5957 1492.09 6.5 1508.24 6.5C1524.4 6.5 1537.5 19.5957 1537.5 35.75C1537.5 51.9045 1524.4 65 1508.24 65C1492.09 65 1478.99 51.9045 1478.99 35.75ZM1510.22 17.875H1495.24V53.625H1501.54V39.2457H1506.15C1507.83 39.2457 1509.2 39.444 1510.27 39.8408C1511.37 40.2373 1512.22 40.8655 1512.84 41.7248C1513.45 42.5513 1513.87 43.6586 1514.1 45.047L1515.02 50.5508C1515.12 51.1459 1515.25 51.7078 1515.41 52.2366C1515.57 52.7657 1515.78 53.2282 1516.04 53.625H1522.87C1522.61 53.1953 1522.37 52.65 1522.14 51.9886C1521.95 51.3276 1521.76 50.6168 1521.56 49.8566C1521.56 49.6912 1521.53 49.5427 1521.47 49.4104L1520.3 43.7577C1519.98 42.171 1519.49 40.8983 1518.85 39.9399C1518.2 38.9811 1517.28 38.221 1516.08 37.6591C1517.22 37.0971 1518.18 36.3532 1518.99 35.4276C1519.8 34.502 1520.41 33.461 1520.84 32.3039C1521.26 31.1139 1521.47 29.8743 1521.47 28.5851C1521.47 26.4034 1521 24.5027 1520.06 22.883C1519.16 21.2632 1517.85 20.0236 1516.13 19.1642C1514.45 18.3047 1512.48 17.875 1510.22 17.875ZM1512.35 32.9485C1511.51 33.3453 1510.49 33.5436 1509.3 33.5436H1501.54V23.5772H1509.3C1511.08 23.5772 1512.47 24.0234 1513.47 24.9159C1514.5 25.8084 1515.02 27.0315 1515.02 28.5851C1515.02 29.6099 1514.78 30.5024 1514.29 31.2627C1513.84 31.9899 1513.19 32.552 1512.35 32.9485Z" fill="#1E1E1E"/>
</g>
<defs>
<clipPath id="clip0_473_36">
<rect width="1544" height="208" fill="white"/>
</clipPath>
</defs>
</svg>
